<?xml version="1.0" encoding="UTF-8"?>
<svg xmlns="http://www.w3.org/2000/svg" xmlns:xlink="http://www.w3.org/1999/xlink" width="72px"
    height="128px" viewBox="0 0 72 128" version="1.1">
    <g id="surface1">
        <g transform="translate(36 64) rotate(-5) scale(1 0.5) translate(-36 -64)">
            <g transform="translate(0 10)">
                <path style=" stroke:none;fill-rule:nonzero;fill:rgb(0%,0%,0%);fill-opacity:1;"
                    d="M 29.269531 71.539062 L 35.542969 65.902344 L 38.648438 69.144531 C 39.578125 70.128906 40.113281 71.398438 40.234375 72.808594 C 40.308594 73.652344 40.242188 74.5 40.1875 75.488281 L 38.347656 96.351562 C 38.304688 97.480469 38.09375 98.328125 37.988281 98.75 C 37.78125 99.59375 37.28125 100.300781 35.839844 101.570312 L 32.316406 104.8125 L 26.851562 98.75 Z M 29.269531 71.539062 " />
            </g>
            <g transform="translate(0 -10)">
                <path style=" stroke:none;fill-rule:nonzero;fill:rgb(0%,0%,0%);fill-opacity:1;"
                    d="M 32.964844 29.949219 L 40.191406 23.886719 L 42.535156 26.566406 C 43.480469 27.695312 44 28.824219 44.101562 29.949219 C 44.160156 30.652344 44.082031 31.355469 44.015625 32.207031 L 42.292969 52.789062 C 41.894531 56.3125 41.183594 57.867188 39.21875 59.558594 L 35.828125 62.65625 L 30.550781 57.15625 Z M 32.964844 29.949219 " />
            </g>
        </g>
    </g>
</svg>