<?xml version="1.0" encoding="UTF-8"?>
<svg xmlns="http://www.w3.org/2000/svg" xmlns:xlink="http://www.w3.org/1999/xlink" width="72px" height="128px" viewBox="0 0 72 128" version="1.1">
<g id="surface1">
<path style=" stroke:none;fill-rule:nonzero;fill:rgb(0%,0%,0%);fill-opacity:1;" d="M 50.011719 108.902344 L 57.121094 117.230469 L 53.503906 120.417969 C 51.046875 122.722656 50.011719 123.078125 45.410156 123.078125 L 15.828125 123.078125 C 11.398438 123.078125 9.578125 122.542969 7.800781 120.417969 L 5.058594 117.402344 L 14.589844 108.902344 Z M 50.011719 108.902344 "/>
<path style=" stroke:none;fill-rule:nonzero;fill:rgb(0%,0%,0%);fill-opacity:1;" d="M 54.679688 57 L 61.164062 64.265625 L 53.265625 71.167969 L 18.015625 71.167969 L 11.386719 64.261719 L 19.253906 56.996094 L 54.679688 56.996094 Z M 54.679688 57 "/>
<path style=" stroke:none;fill-rule:nonzero;fill:rgb(0%,0%,0%);fill-opacity:1;" d="M 22.316406 19.097656 L 15.289062 11.652344 L 18.859375 7.933594 C 20.960938 5.628906 22.496094 4.921875 25.503906 4.921875 L 57.566406 4.921875 C 60.402344 4.921875 62.058594 5.628906 63.851562 7.933594 L 67.179688 11.480469 L 57.921875 19.097656 Z M 22.316406 19.097656 "/>
<path style=" stroke:none;fill-rule:nonzero;fill:rgb(0%,0%,0%);fill-opacity:1;" d="M 55.238281 73.472656 L 63.121094 66.390625 L 67.019531 70.460938 C 68.1875 71.703125 68.859375 73.292969 69.015625 75.070312 C 69.109375 76.125 69.023438 77.195312 68.953125 78.433594 L 66.640625 104.648438 C 66.585938 106.066406 66.324219 107.128906 66.191406 107.65625 C 65.929688 108.71875 65.300781 109.609375 63.492188 111.203125 L 59.0625 115.277344 L 52.199219 107.65625 Z M 55.238281 73.472656 "/>
<path style=" stroke:none;fill-rule:nonzero;fill:rgb(0%,0%,0%);fill-opacity:1;" d="M 59.878906 21.21875 L 68.957031 13.601562 L 71.90625 16.96875 C 73.089844 18.386719 73.746094 19.804688 73.871094 21.21875 C 73.945312 22.101562 73.847656 22.988281 73.761719 24.054688 L 71.597656 49.914062 C 71.101562 54.339844 70.207031 56.292969 67.738281 58.417969 L 63.476562 62.3125 L 56.847656 55.402344 Z M 59.878906 21.21875 "/>
</g>
</svg>
