<?xml version="1.0" encoding="UTF-8"?>
<svg xmlns="http://www.w3.org/2000/svg" xmlns:xlink="http://www.w3.org/1999/xlink" width="72px" height="128px" viewBox="0 0 72 128" version="1.1">
<g id="surface1">
<path style=" stroke:none;fill-rule:nonzero;fill:rgb(0%,0%,0%);fill-opacity:1;" d="M 11.996094 107.65625 L 3.257812 115.101562 L -0.109375 111.023438 C -1.085938 109.960938 -1.746094 108.542969 -1.882812 106.949219 C -1.945312 106.238281 -1.84375 105.359375 -1.746094 104.46875 L 0.523438 77.722656 C 0.839844 75.242188 1.550781 73.289062 3.023438 71.878906 L 9.082031 66.210938 L 15.117188 72.410156 L 11.992188 107.65625 Z M 11.996094 107.65625 "/>
<path style=" stroke:none;fill-rule:nonzero;fill:rgb(0%,0%,0%);fill-opacity:1;" d="M 50.011719 108.902344 L 57.121094 117.230469 L 53.503906 120.417969 C 51.046875 122.722656 50.011719 123.078125 45.410156 123.078125 L 15.828125 123.078125 C 11.398438 123.078125 9.578125 122.542969 7.800781 120.417969 L 5.058594 117.402344 L 14.589844 108.902344 Z M 50.011719 108.902344 "/>
<path style=" stroke:none;fill-rule:nonzero;fill:rgb(0%,0%,0%);fill-opacity:1;" d="M 54.679688 57 L 61.164062 64.265625 L 53.265625 71.167969 L 18.015625 71.167969 L 11.386719 64.261719 L 19.253906 56.996094 L 54.679688 56.996094 Z M 54.679688 57 "/>
<path style=" stroke:none;fill-rule:nonzero;fill:rgb(0%,0%,0%);fill-opacity:1;" d="M 22.316406 19.097656 L 15.289062 11.652344 L 18.859375 7.933594 C 20.960938 5.628906 22.496094 4.921875 25.503906 4.921875 L 57.566406 4.921875 C 60.402344 4.921875 62.058594 5.628906 63.851562 7.933594 L 67.179688 11.480469 L 57.921875 19.097656 Z M 22.316406 19.097656 "/>
<path style=" stroke:none;fill-rule:nonzero;fill:rgb(0%,0%,0%);fill-opacity:1;" d="M 59.878906 21.21875 L 68.957031 13.601562 L 71.90625 16.96875 C 73.089844 18.386719 73.746094 19.804688 73.871094 21.21875 C 73.945312 22.101562 73.847656 22.988281 73.761719 24.054688 L 71.597656 49.914062 C 71.101562 54.339844 70.207031 56.292969 67.738281 58.417969 L 63.476562 62.3125 L 56.847656 55.402344 Z M 59.878906 21.21875 "/>
</g>
</svg>
