<?xml version="1.0" encoding="UTF-8"?>
<svg xmlns="http://www.w3.org/2000/svg" xmlns:xlink="http://www.w3.org/1999/xlink" width="72px" height="px" viewBox="0 0 72 128" version="1.1">
<g id="surface1">
<path style=" stroke:none;fill-rule:nonzero;fill:rgb(0%,0%,0%);fill-opacity:1;" d="M 16.636719 55.402344 L 9.238281 61.957031 L 5.726562 58.238281 C 4.164062 56.648438 3.097656 54.519531 2.957031 52.925781 C 2.878906 52.042969 2.964844 50.980469 3.03125 49.734375 L 5.175781 25.644531 C 5.410156 22.28125 6.167969 20.867188 8.609375 18.386719 L 12.996094 13.78125 L 19.679688 21.394531 Z M 16.636719 55.402344 "/>
<path style=" stroke:none;fill-rule:nonzero;fill:rgb(0%,0%,0%);fill-opacity:1;" d="M 54.679688 57 L 61.164062 64.265625 L 53.265625 71.167969 L 18.015625 71.167969 L 11.386719 64.261719 L 19.253906 56.996094 L 54.679688 56.996094 Z M 54.679688 57 "/>
<path style=" stroke:none;fill-rule:nonzero;fill:rgb(0%,0%,0%);fill-opacity:1;" d="M 55.238281 73.472656 L 63.121094 66.390625 L 67.019531 70.460938 C 68.1875 71.703125 68.859375 73.292969 69.015625 75.070312 C 69.109375 76.125 69.023438 77.195312 68.953125 78.433594 L 66.640625 104.648438 C 66.585938 106.066406 66.324219 107.128906 66.191406 107.65625 C 65.929688 108.71875 65.300781 109.609375 63.492188 111.203125 L 59.0625 115.277344 L 52.199219 107.65625 Z M 55.238281 73.472656 "/>
<path style=" stroke:none;fill-rule:nonzero;fill:rgb(0%,0%,0%);fill-opacity:1;" d="M 59.878906 21.21875 L 68.957031 13.601562 L 71.90625 16.96875 C 73.089844 18.386719 73.746094 19.804688 73.871094 21.21875 C 73.945312 22.101562 73.847656 22.988281 73.761719 24.054688 L 71.597656 49.914062 C 71.101562 54.339844 70.207031 56.292969 67.738281 58.417969 L 63.476562 62.3125 L 56.847656 55.402344 Z M 59.878906 21.21875 "/>
</g>
</svg>
