<?xml version="1.0" encoding="UTF-8"?>
<svg xmlns="http://www.w3.org/2000/svg" xmlns:xlink="http://www.w3.org/1999/xlink" width="32px" height="px" viewBox="0 0 32 32" version="1.1">
<g id="surface1">
<path style=" stroke:none;fill-rule:nonzero;fill:rgb(26.666668%,26.666668%,26.666668%);fill-opacity:1;" d="M 23.800781 10.109375 C 24.015625 10.34375 24.058594 10.605469 23.929688 10.894531 L 14.285156 31.554688 C 14.128906 31.851562 13.878906 32 13.535156 32 C 13.488281 32 13.40625 31.988281 13.285156 31.964844 C 13.082031 31.902344 12.929688 31.792969 12.832031 31.625 C 12.730469 31.460938 12.703125 31.28125 12.75 31.089844 L 16.269531 16.664062 L 9.019531 18.464844 C 8.972656 18.476562 8.898438 18.484375 8.804688 18.484375 C 8.589844 18.484375 8.402344 18.417969 8.25 18.289062 C 8.035156 18.109375 7.957031 17.878906 8.015625 17.589844 L 11.605469 2.859375 C 11.652344 2.691406 11.746094 2.554688 11.890625 2.449219 C 12.035156 2.339844 12.203125 2.285156 12.390625 2.289062 L 18.25 2.289062 C 18.476562 2.289062 18.667969 2.363281 18.820312 2.511719 C 18.976562 2.660156 19.054688 2.835938 19.054688 3.039062 C 19.054688 3.132812 19.023438 3.238281 18.964844 3.359375 L 15.910156 11.628906 L 22.984375 9.875 C 23.078125 9.851562 23.148438 9.839844 23.199219 9.839844 C 23.425781 9.839844 23.625 9.929688 23.808594 10.109375 Z M 23.800781 10.109375 "/>
</g>
</svg>
