<?xml version="1.0" encoding="UTF-8"?>
<svg xmlns="http://www.w3.org/2000/svg" xmlns:xlink="http://www.w3.org/1999/xlink" width="32px" height="32px" viewBox="0 0 32 32" version="1.1">
<g id="surface1">
<path style=" stroke:none;fill-rule:nonzero;fill:rgb(0%,0%,0%);fill-opacity:1;" d="M 28.957031 9.214844 C 29.242188 9.4375 29.382812 9.792969 29.332031 10.152344 C 29.28125 10.507812 29.039062 10.808594 28.703125 10.9375 C 28.367188 11.066406 27.988281 11.007812 27.710938 10.777344 C 24.390625 8.128906 20.308594 6.667969 16 6.667969 C 11.695312 6.667969 7.609375 8.128906 4.289062 10.78125 C 4.011719 11.007812 3.632812 11.070312 3.296875 10.941406 C 2.960938 10.808594 2.71875 10.507812 2.667969 10.152344 C 2.617188 9.796875 2.757812 9.441406 3.042969 9.21875 C 6.710938 6.289062 11.238281 4.667969 16 4.667969 C 20.765625 4.667969 25.289062 6.285156 28.957031 9.214844 Z M 21.601562 18.53125 C 22.042969 18.863281 22.132812 19.492188 21.800781 19.933594 C 21.46875 20.375 20.839844 20.464844 20.398438 20.132812 C 19.132812 19.179688 17.585938 18.664062 16 18.667969 C 14.390625 18.667969 12.859375 19.1875 11.601562 20.132812 C 11.316406 20.355469 10.933594 20.40625 10.601562 20.265625 C 10.265625 20.125 10.035156 19.816406 9.992188 19.457031 C 9.953125 19.097656 10.105469 18.746094 10.398438 18.535156 C 12.015625 17.320312 13.980469 16.664062 16 16.667969 C 18.046875 16.667969 19.996094 17.328125 21.601562 18.53125 Z M 25.601562 13.867188 C 26.042969 14.199219 26.132812 14.824219 25.800781 15.265625 C 25.46875 15.707031 24.839844 15.796875 24.398438 15.464844 C 21.996094 13.660156 19.074219 12.667969 16 12.667969 C 12.925781 12.667969 10.003906 13.660156 7.601562 15.464844 C 7.316406 15.683594 6.933594 15.734375 6.605469 15.59375 C 6.273438 15.453125 6.042969 15.144531 6 14.789062 C 5.957031 14.433594 6.109375 14.082031 6.398438 13.867188 C 9.148438 11.800781 12.488281 10.667969 16 10.667969 C 19.511719 10.667969 22.851562 11.800781 25.601562 13.867188 Z M 16 26.667969 C 14.894531 26.667969 14 25.769531 14 24.667969 C 14 23.5625 14.894531 22.667969 16 22.667969 C 17.105469 22.667969 18 23.5625 18 24.667969 C 18 25.769531 17.105469 26.667969 16 26.667969 Z M 16 26.667969 "/>
</g>
</svg>
