<?xml version="1.0" standalone="no"?><!DOCTYPE svg PUBLIC "-//W3C//DTD SVG 1.1//EN" "http://www.w3.org/Graphics/SVG/1.1/DTD/svg11.dtd"><svg t="1762843850885" class="icon" viewBox="0 0 1317 1024" version="1.1" xmlns="http://www.w3.org/2000/svg" p-id="12415" xmlns:xlink="http://www.w3.org/1999/xlink" width="257.2265625" height="200"><path d="M1243.428571 329.142857q30.281143 0 51.712 21.430857t21.430857 51.712l0 219.428571q0 30.281143-21.430857 51.712t-51.712 21.430857l0 91.428571q0 37.741714-26.843429 64.585143t-64.585143 26.843429l-1060.571429 0q-37.741714 0-64.585143-26.843429t-26.843429-64.585143l0-548.571429q0-37.741714 26.843429-64.585143t64.585143-26.843429l1060.571429 0q37.741714 0 64.585143 26.843429t26.843429 64.585143l0 91.428571zM1243.428571 621.714286l0-219.428571-73.142857 0 0-164.571429q0-7.972571-5.12-13.165714t-13.165714-5.12l-1060.571429 0q-7.972571 0-13.165714 5.12t-5.12 13.165714l0 548.571429q0 7.972571 5.12 13.165714t13.165714 5.12l1060.571429 0q7.972571 0 13.165714-5.12t5.12-13.165714l0-164.571429 73.142857 0z" fill="#444444" p-id="12416"></path></svg>