<?xml version="1.0" encoding="UTF-8"?>
<svg xmlns="http://www.w3.org/2000/svg" xmlns:xlink="http://www.w3.org/1999/xlink" width="32px" height="px" viewBox="0 0 32 25" version="1.1">
<g id="surface1">
<path style=" stroke:none;fill-rule:nonzero;fill:rgb(26.666668%,26.666668%,26.666668%);fill-opacity:1;" d="M 26.679688 7.144531 L 26.679688 17.855469 L 3.558594 17.855469 L 3.558594 7.144531 Z M 28.460938 15.179688 L 30.238281 15.179688 L 30.238281 9.820312 L 28.460938 9.820312 L 28.460938 5.804688 C 28.460938 5.671875 28.417969 5.566406 28.335938 5.480469 C 28.253906 5.398438 28.144531 5.355469 28.015625 5.355469 L 2.222656 5.355469 C 2.09375 5.355469 1.988281 5.398438 1.902344 5.480469 C 1.820312 5.566406 1.777344 5.671875 1.777344 5.804688 L 1.777344 19.195312 C 1.777344 19.328125 1.820312 19.433594 1.902344 19.519531 C 1.984375 19.601562 2.09375 19.644531 2.222656 19.644531 L 28.015625 19.644531 C 28.144531 19.644531 28.25 19.601562 28.335938 19.519531 C 28.421875 19.433594 28.460938 19.328125 28.460938 19.195312 Z M 32.019531 9.820312 L 32.019531 15.179688 C 32.019531 15.671875 31.84375 16.09375 31.496094 16.441406 C 31.148438 16.789062 30.730469 16.964844 30.238281 16.964844 L 30.238281 19.195312 C 30.238281 19.8125 30.019531 20.335938 29.585938 20.773438 C 29.152344 21.210938 28.628906 21.429688 28.015625 21.429688 L 2.222656 21.429688 C 1.613281 21.429688 1.089844 21.210938 0.652344 20.773438 C 0.21875 20.335938 0 19.8125 0 19.195312 L 0 5.804688 C 0 5.1875 0.21875 4.664062 0.652344 4.226562 C 1.089844 3.789062 1.613281 3.570312 2.222656 3.570312 L 28.015625 3.570312 C 28.628906 3.570312 29.152344 3.789062 29.585938 4.226562 C 30.019531 4.664062 30.238281 5.1875 30.238281 5.804688 L 30.238281 8.035156 C 30.730469 8.035156 31.148438 8.210938 31.496094 8.558594 C 31.84375 8.90625 32.019531 9.328125 32.019531 9.820312 Z M 32.019531 9.820312 "/>
</g>
</svg>
