<?xml version="1.0" standalone="no"?><!DOCTYPE svg PUBLIC "-//W3C//DTD SVG 1.1//EN" "http://www.w3.org/Graphics/SVG/1.1/DTD/svg11.dtd"><svg t="1762843983037" class="icon" viewBox="0 0 1024 1024" version="1.1" xmlns="http://www.w3.org/2000/svg" p-id="12020" xmlns:xlink="http://www.w3.org/1999/xlink" width="200" height="200"><path d="M761.668332 323.437712q10.313143 11.410286 4.022857 25.161143l-308.589712 661.138281q-7.460571 14.262857-23.990857 14.262857-2.267429 0-7.972571-1.170286-9.728-2.852571-14.555428-10.825143t-2.56-17.115428l112.566856-461.677711-232.009141 57.709714q-2.267429 0.585143-6.875429 0.585143-10.313143 0-17.700571-6.290286-10.313143-8.557714-7.460571-22.308571l114.834285-471.405711q2.267429-7.972571 9.142857-13.165714t16.018286-5.12l187.465142 0q10.825143 0 18.285714 7.168t7.460571 16.822857q0 4.534857-2.852571 10.313143l-97.718856 264.557712 226.303998-56.027428q4.534857-1.170286 6.875429-1.170286 10.825143 0 19.456 8.557714z" fill="#444444" p-id="12021"></path></svg>