<?xml version="1.0" standalone="no"?>
<!DOCTYPE svg PUBLIC "-//W3C//DTD SVG 1.1//EN" "http://www.w3.org/Graphics/SVG/1.1/DTD/svg11.dtd">
<svg t="1762842383183" class="icon" viewBox="0 0 1024 1024" version="1.1" xmlns="http://www.w3.org/2000/svg" p-id="1617" xmlns:xlink="http://www.w3.org/1999/xlink" width="200" height="200">
   <path d="M757.12 458.666667a353.706667 353.706667 0 0 1 63.658667 88.32 32 32 0 0 1-56.96 29.141333 290.048 290.048 0 0 0-51.925334-72.192A279.978667 279.978667 0 0 0 264.106667 575.36a32 32 0 1 1-57.130667-28.928 343.978667 343.978667 0 0 1 550.101333-87.765333z m-89.642667 130.986666c19.072 19.072 34.773333 42.538667 45.738667 67.498667a32 32 0 0 1-58.624 25.685333 158.677333 158.677333 0 0 0-32.426667-47.957333 153.258667 153.258667 0 0 0-216.704 0c-13.226667 13.226667-23.978667 29.397333-31.872 47.36a32 32 0 1 1-58.624-25.6 218.026667 218.026667 0 0 1 45.226667-66.986667 217.258667 217.258667 0 0 1 307.285333 0z m205.013334-236.416c21.717333 21.717333 42.24 46.506667 60.074666 72.405334a32 32 0 1 1-52.693333 36.352 461.738667 461.738667 0 0 0-52.650667-63.488c-174.08-174.08-456.32-174.08-630.4 0-18.005333 17.962667-35.84 39.808-52.138666 63.274666a32 32 0 0 1-52.608-36.48c18.346667-26.453333 38.613333-51.2 59.477333-72.106666 199.082667-199.04 521.813333-199.04 720.938667 0z m-315.221334 348.16a64 64 0 1 1-90.496 90.538667 64 64 0 0 1 90.496-90.538667z" fill="#212121" p-id="1618"></path>
</svg>