<?xml version="1.0" encoding="UTF-8"?>
<svg xmlns="http://www.w3.org/2000/svg" xmlns:xlink="http://www.w3.org/1999/xlink" width="32px" height="px" viewBox="0 0 32 32" version="1.1">
<g id="surface1">
<path style=" stroke:none;fill-rule:nonzero;fill:rgb(12.941177%,12.941177%,12.941177%);fill-opacity:1;" d="M 23.660156 14.332031 C 24.460938 15.144531 25.132812 16.078125 25.648438 17.09375 C 25.886719 17.582031 25.6875 18.171875 25.203125 18.417969 C 24.71875 18.664062 24.128906 18.480469 23.871094 18.003906 C 23.449219 17.171875 22.898438 16.414062 22.246094 15.746094 C 20.265625 13.765625 17.449219 12.851562 14.679688 13.292969 C 11.910156 13.734375 9.519531 15.476562 8.253906 17.980469 C 8.003906 18.472656 7.402344 18.671875 6.910156 18.421875 C 6.414062 18.171875 6.21875 17.570312 6.46875 17.074219 C 8.023438 14.003906 10.960938 11.863281 14.363281 11.320312 C 17.765625 10.777344 21.222656 11.898438 23.660156 14.332031 Z M 20.859375 18.425781 C 21.453125 19.023438 21.945312 19.757812 22.289062 20.535156 C 22.507812 21.042969 22.277344 21.632812 21.773438 21.851562 C 21.265625 22.074219 20.675781 21.84375 20.457031 21.339844 C 20.214844 20.78125 19.871094 20.273438 19.441406 19.839844 C 17.574219 17.96875 14.539062 17.96875 12.671875 19.839844 C 12.257812 20.253906 11.921875 20.757812 11.675781 21.320312 C 11.539062 21.660156 11.230469 21.894531 10.867188 21.941406 C 10.507812 21.984375 10.148438 21.828125 9.933594 21.535156 C 9.722656 21.238281 9.6875 20.847656 9.84375 20.519531 C 10.179688 19.742188 10.660156 19.03125 11.257812 18.425781 C 13.90625 15.773438 18.207031 15.773438 20.859375 18.425781 Z M 27.265625 11.039062 C 27.945312 11.71875 28.585938 12.492188 29.144531 13.300781 C 29.457031 13.757812 29.34375 14.378906 28.886719 14.691406 C 28.433594 15.007812 27.808594 14.890625 27.496094 14.4375 C 27.007812 13.726562 26.457031 13.0625 25.851562 12.453125 C 20.410156 7.011719 11.589844 7.011719 6.152344 12.453125 C 5.589844 13.015625 5.03125 13.699219 4.519531 14.429688 C 4.207031 14.882812 3.582031 14.996094 3.128906 14.683594 C 2.675781 14.367188 2.5625 13.746094 2.878906 13.289062 C 3.449219 12.464844 4.085938 11.691406 4.734375 11.039062 C 10.957031 4.816406 21.042969 4.816406 27.265625 11.039062 Z M 17.414062 21.917969 C 18.195312 22.699219 18.195312 23.964844 17.414062 24.746094 C 16.632812 25.527344 15.367188 25.527344 14.585938 24.746094 C 13.804688 23.96875 13.804688 22.699219 14.585938 21.917969 C 15.367188 21.136719 16.632812 21.136719 17.414062 21.917969 Z M 17.414062 21.917969 "/>
</g>
</svg>
